<svg width="26" height="23" viewBox="0 0 26 23" fill="none" xmlns="http://www.w3.org/2000/svg">
<path d="M16.7917 4.33337C17.9834 4.33337 18.9584 3.35837 18.9584 2.16668C18.9584 0.975 17.9834 2.08361e-07 16.7917 0C15.6 -2.08361e-07 14.625 0.974999 14.625 2.16668C14.625 3.35837 15.6 4.33337 16.7917 4.33337Z" fill="#116D9A"/>
<path d="M5.41669 11.375C2.4375 11.375 5.20897e-07 13.8125 0 16.7917C-5.20897e-07 19.7709 2.4375 22.2084 5.41668 22.2084C8.39587 22.2084 10.8334 19.7709 10.8334 16.7917C10.8334 13.8125 8.39582 11.375 5.41669 11.375ZM5.41668 20.5834C3.30418 20.5834 1.625 18.9042 1.625 16.7917C1.625 14.6792 3.30418 13 5.41668 13C7.52918 13 9.20837 14.6792 9.20837 16.7917C9.20837 18.9042 7.52918 20.5834 5.41668 20.5834Z" fill="#116D9A"/>
<path d="M20.5292 10.2375V8.07082C18.9042 8.07082 17.55 7.475 16.575 6.5L14.4625 4.44169C14.1375 4.06251 13.5958 3.79169 13 3.79169C12.4042 3.79169 11.8625 4.00837 11.4833 4.44169L8.50414 7.42087C8.12496 7.80005 7.85414 8.34169 7.85414 8.93755C7.85414 9.53342 8.12496 10.0751 8.50414 10.5084L11.9166 13.5417L11.9166 18.9584H14.0833L14.0833 12.1875L11.7 9.80419L14.2458 7.20419L15.0583 8.01669C16.4125 9.425 18.3083 10.2375 20.5292 10.2375Z" fill="#116D9A"/>
<path d="M20.5833 11.375C17.6041 11.375 15.1666 13.8125 15.1666 16.7917C15.1666 19.7709 17.6041 22.2084 20.5833 22.2084C23.5625 22.2084 26 19.7709 26 16.7917C26 13.8125 23.5625 11.375 20.5833 11.375ZM20.5833 20.5834C18.4708 20.5834 16.7916 18.9042 16.7916 16.7917C16.7916 14.6792 18.4708 13 20.5833 13C22.6958 13 24.375 14.6792 24.375 16.7917C24.375 18.9042 22.6958 20.5834 20.5833 20.5834Z" fill="#116D9A"/>
</svg>
