<svg xmlns="http://www.w3.org/2000/svg" viewBox="0 0 131.42 40.33"><defs><style>.cls-1{fill:#ffd72f;}.cls-2{fill:#116d9a;}.cls-3{fill:#acdce8;}</style></defs><title>Logo-bike-3</title><g id="Layer_2" data-name="Layer 2"><g id="Calque_1" data-name="Calque 1"><path class="cls-1" d="M0,16.51V.49A.49.49,0,0,1,.49,0H6a4.86,4.86,0,0,1,5,4.86A4.34,4.34,0,0,1,9.76,8a.27.27,0,0,0,0,.44,3.87,3.87,0,0,1,1.43,3.25C11.19,14.93,9.2,17,6,17H.49A.49.49,0,0,1,0,16.51ZM7.57,5A1.65,1.65,0,0,0,6,3.4H3.64a.23.23,0,0,0-.24.24V6.38a.23.23,0,0,0,.24.25H6A1.67,1.67,0,0,0,7.57,5Zm.1,6.7A1.79,1.79,0,0,0,6,9.83H3.64a.23.23,0,0,0-.24.24v3.28a.23.23,0,0,0,.24.24H6A1.77,1.77,0,0,0,7.67,11.7Z"/><path class="cls-1" d="M16.68,3.28H14a.49.49,0,0,1-.48-.49V.49A.49.49,0,0,1,14,0h9.23a.49.49,0,0,1,.48.49v2.3a.49.49,0,0,1-.48.49H20.57a.23.23,0,0,0-.25.24v10a.23.23,0,0,0,.25.24h2.91a.48.48,0,0,1,.48.49v2.31a.48.48,0,0,1-.48.48H13.77a.49.49,0,0,1-.49-.48V14.2a.49.49,0,0,1,.49-.49h2.91a.23.23,0,0,0,.25-.24v-10A.23.23,0,0,0,16.68,3.28Z"/><path class="cls-1" d="M26.37,16.51V.49A.49.49,0,0,1,26.86,0h2.4a.49.49,0,0,1,.49.49V6.43c0,.1.05.15.12.15s.1,0,.17-.15L34.6.24c.08-.12.17-.24.54-.24h2.64a.5.5,0,0,1,.51.54.48.48,0,0,1-.1.33l-5.34,7a.71.71,0,0,0-.14.38.78.78,0,0,0,.14.42L38.27,16a.76.76,0,0,1,.14.46.54.54,0,0,1-.6.53H35.18a.67.67,0,0,1-.63-.39l-4.46-6.5c-.07-.12-.15-.22-.22-.22s-.12,0-.12.15v6.48a.49.49,0,0,1-.49.48h-2.4A.49.49,0,0,1,26.37,16.51Z"/><path class="cls-2" d="M40.27,16.51V.49A.48.48,0,0,1,40.75,0h9.54a.48.48,0,0,1,.48.49V2.91a.48.48,0,0,1-.48.49H43.91a.23.23,0,0,0-.25.24V6.55a.24.24,0,0,0,.25.25h6.18a.49.49,0,0,1,.49.48V9.71a.48.48,0,0,1-.49.48H43.91a.24.24,0,0,0-.25.25v2.91a.23.23,0,0,0,.25.24h6.48a.49.49,0,0,1,.48.49v2.43a.49.49,0,0,1-.48.48H40.75A.48.48,0,0,1,40.27,16.51Z"/><path class="cls-2" d="M.41,39.58v-16a.49.49,0,0,1,.49-.49H3.33a.49.49,0,0,1,.48.49V36.42a.23.23,0,0,0,.24.25h6.56a.48.48,0,0,1,.48.48v2.43a.49.49,0,0,1-.48.48H.9A.49.49,0,0,1,.41,39.58Z"/><path class="cls-2" d="M13,35V23.56a.49.49,0,0,1,.49-.49h2.45a.49.49,0,0,1,.49.49V35a2,2,0,0,0,2.18,1.94A2,2,0,0,0,20.83,35V23.56a.49.49,0,0,1,.49-.49h2.45a.49.49,0,0,1,.49.49V35a5.43,5.43,0,0,1-5.66,5.36A5.42,5.42,0,0,1,13,35Z"/><path class="cls-2" d="M25.77,39.68a1.35,1.35,0,0,1,.17-.56l3.44-7.82a.63.63,0,0,0,.08-.27.59.59,0,0,0-.08-.26l-3.15-7a.8.8,0,0,1-.07-.31c0-.22.12-.37.46-.37h2.74c.22,0,.34.08.46.37l2,5c0,.12.07.15.14.15s.1,0,.15-.15l2-5c.12-.29.24-.37.46-.37h2.75c.33,0,.46.17.46.37a.71.71,0,0,1-.08.31l-3.15,7a.56.56,0,0,0-.07.26.67.67,0,0,0,.07.27L38,39.12a1.21,1.21,0,0,1,.17.56.4.4,0,0,1-.43.38H34.85a.46.46,0,0,1-.47-.36L32.13,34c-.05-.12-.08-.15-.15-.15s-.1,0-.14.15L29.58,39.7c-.1.27-.24.36-.46.36H26.2A.4.4,0,0,1,25.77,39.68Z"/><path class="cls-3" d="M40.27,39.58v-16a.48.48,0,0,1,.48-.49h9.54a.48.48,0,0,1,.48.49V26a.48.48,0,0,1-.48.48H43.91a.23.23,0,0,0-.25.24v2.92a.23.23,0,0,0,.25.24h6.18a.49.49,0,0,1,.49.48v2.43a.49.49,0,0,1-.49.49H43.91a.23.23,0,0,0-.25.24v2.91a.24.24,0,0,0,.25.25h6.48a.48.48,0,0,1,.48.48v2.43a.49.49,0,0,1-.48.48H40.75A.48.48,0,0,1,40.27,39.58Z"/><path class="cls-3" d="M58.91,28.46l1.27-5a.47.47,0,0,1,.5-.42h3.11a.49.49,0,0,1,.49.49v16a.49.49,0,0,1-.49.48H61.41a.49.49,0,0,1-.48-.48V29.24c0-.12-.17-.17-.2,0l-.87,4.37a.47.47,0,0,1-.51.42H58.06a.47.47,0,0,1-.51-.42l-.89-4.37c0-.14-.2-.09-.2,0V39.58a.49.49,0,0,1-.48.48H53.6a.49.49,0,0,1-.49-.48v-16a.49.49,0,0,1,.49-.49h3.1a.47.47,0,0,1,.51.42l1.27,5A.22.22,0,0,0,58.91,28.46Z"/><path class="cls-3" d="M66.78,39.58v-16a.49.49,0,0,1,.49-.49h5.48a4.85,4.85,0,0,1,5,4.86,4.34,4.34,0,0,1-1.24,3.15.28.28,0,0,0,0,.44A3.87,3.87,0,0,1,78,34.77c0,3.23-2,5.29-5.22,5.29H67.27A.49.49,0,0,1,66.78,39.58Zm7.58-11.51a1.65,1.65,0,0,0-1.61-1.6H70.43a.23.23,0,0,0-.25.24v2.75a.23.23,0,0,0,.25.24h2.32A1.68,1.68,0,0,0,74.36,28.07Zm.09,6.7a1.79,1.79,0,0,0-1.7-1.87H70.43a.24.24,0,0,0-.25.25v3.27a.24.24,0,0,0,.25.25h2.32A1.78,1.78,0,0,0,74.45,34.77Z"/><path class="cls-3" d="M80.14,37.1a14.07,14.07,0,0,1-.68-5.53c0-2.31.05-4.13.68-5.54a5.92,5.92,0,0,1,10.54,0c.63,1.41.68,3.23.68,5.54a14.07,14.07,0,0,1-.68,5.53,5.91,5.91,0,0,1-10.54,0Zm7.4-1.36a14.79,14.79,0,0,0,.34-4.17,14.9,14.9,0,0,0-.34-4.18,2.1,2.1,0,0,0-2.13-1.16,2.12,2.12,0,0,0-2.14,1.16,15.29,15.29,0,0,0-.34,4.18,15.17,15.17,0,0,0,.34,4.17,2.11,2.11,0,0,0,2.14,1.17A2.09,2.09,0,0,0,87.54,35.74Z"/><path class="cls-3" d="M93.13,35V23.56a.49.49,0,0,1,.49-.49h2.45a.49.49,0,0,1,.49.49V35A2.22,2.22,0,0,0,101,35V23.56a.49.49,0,0,1,.49-.49h2.45a.49.49,0,0,1,.49.49V35a5.64,5.64,0,0,1-11.27,0Z"/><path class="cls-3" d="M107,39.58v-16a.49.49,0,0,1,.49-.49h5.34a4.85,4.85,0,0,1,5.1,5.1,4.63,4.63,0,0,1-2.53,4.3c-.17.09-.27.19-.27.34a1.34,1.34,0,0,0,.13.46l2.5,5.77a1.23,1.23,0,0,1,.12.47.56.56,0,0,1-.61.55h-2.43c-.31,0-.46-.09-.6-.43l-2.53-6.05a.46.46,0,0,0-.43-.31h-.64a.23.23,0,0,0-.24.24v6.07a.49.49,0,0,1-.48.48h-2.43A.49.49,0,0,1,107,39.58Zm7.41-11.41a1.63,1.63,0,0,0-1.7-1.7h-2.07a.23.23,0,0,0-.24.24v2.92a.23.23,0,0,0,.24.24h2.07A1.63,1.63,0,0,0,114.43,28.17Z"/><path class="cls-3" d="M120.38,37.1c-.65-1.41-.68-3.23-.68-5.53s0-4.13.68-5.54a5.62,5.62,0,0,1,5.39-3.22c3.15,0,5.65,2,5.65,5.31a.48.48,0,0,1-.48.49h-2.48a.53.53,0,0,1-.53-.49,1.93,1.93,0,0,0-2.16-1.89,2.26,2.26,0,0,0-2.26,1.16,14.18,14.18,0,0,0-.34,4.18,14.07,14.07,0,0,0,.34,4.17,2.25,2.25,0,0,0,2.26,1.17,2,2,0,0,0,2.28-2.21v-.49a.23.23,0,0,0-.24-.24h-1.6a.49.49,0,0,1-.49-.48V31.18a.49.49,0,0,1,.49-.49h4.73a.48.48,0,0,1,.48.49v3.5c0,3.85-2.45,5.65-5.65,5.65A5.61,5.61,0,0,1,120.38,37.1Z"/></g></g></svg>