<svg width="34" height="48" viewBox="0 0 34 48" fill="none" xmlns="http://www.w3.org/2000/svg">
<path d="M17 0C7.62615 0 0 7.79832 0 17.3837C0 29.2795 15.2133 46.7431 15.8611 47.4808C16.4694 48.1737 17.5317 48.1725 18.1389 47.4808C18.7867 46.7431 34 29.2795 34 17.3837C33.9998 7.79832 26.3738 0 17 0Z" fill="#FFD72F"/>
<ellipse cx="17" cy="17.3333" rx="13.0769" ry="13.3333" fill="white"/>
<path d="M19.6694 11.1218C20.5086 11.1218 21.1951 10.4194 21.1951 9.56086C21.1951 8.70232 20.5086 7.99988 19.6694 7.99988C18.8303 7.99988 18.1438 8.70232 18.1438 9.56086C18.1438 10.4194 18.8303 11.1218 19.6694 11.1218Z" fill="#116D9A"/>
<path d="M11.6598 16.195C9.56205 16.195 7.8457 17.9511 7.8457 20.0974C7.8457 22.2438 9.56205 23.9999 11.6598 23.9999C13.7576 23.9999 15.4739 22.2438 15.4739 20.0974C15.4739 17.9511 13.7576 16.195 11.6598 16.195ZM11.6598 22.8291C10.1723 22.8291 8.98993 21.6194 8.98993 20.0974C8.98993 18.5755 10.1723 17.3657 11.6598 17.3657C13.1473 17.3657 14.3297 18.5755 14.3297 20.0974C14.3297 21.6194 13.1473 22.8291 11.6598 22.8291Z" fill="#116D9A"/>
<path d="M22.3012 15.3755V13.8145C21.1569 13.8145 20.2034 13.3852 19.5169 12.6828L18.0294 11.1999C17.8005 10.9267 17.4191 10.7316 16.9996 10.7316C16.58 10.7316 16.1986 10.8877 15.9316 11.1999L13.8338 13.3462C13.5668 13.6194 13.3761 14.0096 13.3761 14.4389C13.3761 14.8682 13.5668 15.2584 13.8338 15.5706L16.2367 17.756L16.2367 21.6584H17.7624L17.7624 16.7804L16.0842 15.0633L17.8768 13.1901L18.4489 13.7755C19.4024 14.7901 20.7374 15.3755 22.3012 15.3755Z" fill="#116D9A"/>
<path d="M22.3393 16.195C20.2415 16.195 18.5252 17.9511 18.5252 20.0974C18.5252 22.2438 20.2415 23.9999 22.3393 23.9999C24.4371 23.9999 26.1534 22.2438 26.1534 20.0974C26.1534 17.9511 24.4371 16.195 22.3393 16.195ZM22.3393 22.8291C20.8518 22.8291 19.6694 21.6194 19.6694 20.0974C19.6694 18.5755 20.8518 17.3657 22.3393 17.3657C23.8268 17.3657 25.0092 18.5755 25.0092 20.0974C25.0092 21.6194 23.8268 22.8291 22.3393 22.8291Z" fill="#116D9A"/>
</svg>
