<svg width="26" height="26" viewBox="0 0 26 26" fill="none" xmlns="http://www.w3.org/2000/svg">
<rect width="26" height="26" rx="5" fill="#116D9A"/>
<path d="M8.184 19V7.432H12.608C13.4507 7.432 14.2107 7.58133 14.888 7.88C15.5653 8.17867 16.0987 8.616 16.488 9.192C16.8827 9.76267 17.08 10.4613 17.08 11.288C17.08 12.0507 16.9093 12.7067 16.568 13.256C16.232 13.8 15.7547 14.2187 15.136 14.512C14.5227 14.8 13.7973 14.944 12.96 14.944H10.92V19H8.184ZM10.896 12.88H12.88C13.3653 12.88 13.7653 12.7093 14.08 12.368C14.4 12.0213 14.56 11.6133 14.56 11.144C14.56 10.6587 14.3893 10.2613 14.048 9.952C13.712 9.63733 13.3147 9.48 12.856 9.48H10.896V12.88Z" fill="white"/>
</svg>
